<?xml version="1.0" encoding="UTF-8"?>
<!DOCTYPE svg PUBLIC "-//W3C//DTD SVG 1.1//EN" "http://www.w3.org/Graphics/SVG/1.1/DTD/svg11.dtd">
<svg xmlns="http://www.w3.org/2000/svg" version="1.1" width="2048px" height="2048px" style="shape-rendering:geometricPrecision; text-rendering:geometricPrecision; image-rendering:optimizeQuality; fill-rule:evenodd; clip-rule:evenodd" xmlns:xlink="http://www.w3.org/1999/xlink">
<g><path style="opacity:1" fill="#f9f9f9" d="M -0.5,-0.5 C 682.167,-0.5 1364.83,-0.5 2047.5,-0.5C 2047.5,682.167 2047.5,1364.83 2047.5,2047.5C 1364.83,2047.5 682.167,2047.5 -0.5,2047.5C -0.5,1364.83 -0.5,682.167 -0.5,-0.5 Z"/></g>
<g><path style="opacity:1" fill="#f9f7e9" d="M 1250.5,516.5 C 1261.67,520.458 1273.01,521.458 1284.5,519.5C 1288.58,519.665 1291.91,518.331 1294.5,515.5C 1305.89,510.439 1313.89,502.106 1318.5,490.5C 1320.45,488.266 1321.61,485.599 1322,482.5C 1323.85,469.949 1321.69,458.283 1315.5,447.5C 1309.84,438.174 1301.84,431.841 1291.5,428.5C 1291.17,427.833 1290.83,427.167 1290.5,426.5C 1289.74,425.732 1288.74,425.232 1287.5,425C 1280.5,424.333 1273.5,424.333 1266.5,425C 1263.9,425.39 1261.56,426.224 1259.5,427.5C 1251.62,429.047 1245.29,433.047 1240.5,439.5C 1236.34,443.001 1233.34,447.335 1231.5,452.5C 1230.88,452.083 1230.54,451.416 1230.5,450.5C 1230.9,446.281 1232.24,442.447 1234.5,439C 1234.17,438.667 1233.83,438.333 1233.5,438C 1234.83,437.333 1236.17,436.667 1237.5,436C 1238.83,435.333 1238.83,434.667 1237.5,434C 1240.86,433.468 1243.2,431.634 1244.5,428.5C 1244.83,429.167 1245.17,429.833 1245.5,430.5C 1249.98,427.864 1254.15,425.53 1258,423.5C 1258.33,423.833 1258.67,424.167 1259,424.5C 1260.97,422.73 1263.3,421.73 1266,421.5C 1271.48,422.006 1277.15,422.006 1283,421.5C 1288.68,422.949 1294.18,424.782 1299.5,427C 1300.77,428.307 1301.77,429.807 1302.5,431.5C 1306.89,432.528 1310.89,434.361 1314.5,437C 1313.17,438.84 1313.33,439.34 1315,438.5C 1315.47,439.931 1316.3,441.097 1317.5,442C 1316.55,442.718 1316.38,443.551 1317,444.5C 1319.23,446.999 1321.06,449.166 1322.5,451C 1321.75,454.686 1322.75,458.019 1325.5,461C 1324.51,463.42 1324.85,465.753 1326.5,468C 1325.64,470.803 1325.64,473.803 1326.5,477C 1324.58,478.804 1324.25,480.804 1325.5,483C 1325.09,483.945 1324.43,484.612 1323.5,485C 1324.83,485.667 1324.83,486.333 1323.5,487C 1325.93,488.087 1325.6,488.587 1322.5,488.5C 1322.42,489.93 1322.75,491.264 1323.5,492.5C 1323.15,493.696 1322.65,493.696 1322,492.5C 1321.67,493.833 1321.33,495.167 1321,496.5C 1320.67,496.167 1320.33,495.833 1320,495.5C 1319.57,498.488 1318.4,501.155 1316.5,503.5C 1313.35,507.151 1310.02,510.651 1306.5,514C 1305.55,514.617 1304.72,514.451 1304,513.5C 1302.29,515.71 1300.12,517.376 1297.5,518.5C 1296.75,519.376 1296.25,520.376 1296,521.5C 1295.69,520.692 1295.19,520.025 1294.5,519.5C 1293.28,520.263 1292.28,521.263 1291.5,522.5C 1289.69,521.141 1288.19,521.475 1287,523.5C 1279.89,523.146 1272.89,523.146 1266,523.5C 1260.28,522.212 1255.11,519.879 1250.5,516.5 Z"/></g>
<g><path style="opacity:1" fill="#ede3b9" d="M 1290.5,426.5 C 1280.1,424.978 1269.76,425.311 1259.5,427.5C 1261.56,426.224 1263.9,425.39 1266.5,425C 1273.5,424.333 1280.5,424.333 1287.5,425C 1288.74,425.232 1289.74,425.732 1290.5,426.5 Z"/></g>
<g><path style="opacity:1" fill="#d3b763" d="M 1290.5,426.5 C 1290.83,427.167 1291.17,427.833 1291.5,428.5C 1281.12,428.162 1270.78,428.662 1260.5,430C 1253.36,432.408 1246.69,435.575 1240.5,439.5C 1245.29,433.047 1251.62,429.047 1259.5,427.5C 1269.76,425.311 1280.1,424.978 1290.5,426.5 Z"/></g>
<g><path style="opacity:1" fill="#d9b54c" d="M 1291.5,428.5 C 1293.54,429.923 1294.54,431.923 1294.5,434.5C 1298.21,435.852 1301.88,437.519 1305.5,439.5C 1306.2,442.684 1308.2,444.184 1311.5,444C 1312.71,445.376 1314.04,446.542 1315.5,447.5C 1316.11,453.719 1317.61,459.719 1320,465.5C 1320.95,473.955 1320.45,482.289 1318.5,490.5C 1313.89,502.106 1305.89,510.439 1294.5,515.5C 1285.1,518.28 1275.43,519.28 1265.5,518.5C 1253.63,516.797 1244.13,511.13 1237,501.5C 1234.47,497.104 1231.97,492.771 1229.5,488.5C 1229.5,487.833 1229.17,487.5 1228.5,487.5C 1228.5,485.167 1228.5,482.833 1228.5,480.5C 1228.35,472.804 1228.69,465.138 1229.5,457.5C 1229.83,456.167 1230.17,454.833 1230.5,453.5C 1231.17,453.5 1231.5,453.167 1231.5,452.5C 1233.34,447.335 1236.34,443.001 1240.5,439.5C 1246.69,435.575 1253.36,432.408 1260.5,430C 1270.78,428.662 1281.12,428.162 1291.5,428.5 Z"/></g>
<g><path style="opacity:1" fill="#d4b663" d="M 1291.5,428.5 C 1301.84,431.841 1309.84,438.174 1315.5,447.5C 1314.04,446.542 1312.71,445.376 1311.5,444C 1308.2,444.184 1306.2,442.684 1305.5,439.5C 1301.88,437.519 1298.21,435.852 1294.5,434.5C 1294.54,431.923 1293.54,429.923 1291.5,428.5 Z"/></g>
<g><path style="opacity:1" fill="#131312" d="M 1230.5,453.5 C 1230.17,454.833 1229.83,456.167 1229.5,457.5C 1227.97,461.728 1227.31,466.228 1227.5,471C 1227.5,474.352 1227.84,477.518 1228.5,480.5C 1228.5,482.833 1228.5,485.167 1228.5,487.5C 1147.5,487.333 1066.5,487.5 985.5,488C 917.412,493.22 858.412,518.887 808.5,565C 788.893,583.396 773.06,604.563 761,628.5C 738.293,645.54 718.627,665.54 702,688.5C 707.637,657.269 718.637,627.935 735,600.5C 785.486,521.966 856.986,474.466 949.5,458C 960.169,456.666 970.835,455.333 981.5,454C 1064.5,453.5 1147.5,453.333 1230.5,453.5 Z"/></g>
<g><path style="opacity:1" fill="#a08b51" d="M 1229.5,457.5 C 1228.69,465.138 1228.35,472.804 1228.5,480.5C 1227.84,477.518 1227.5,474.352 1227.5,471C 1227.31,466.228 1227.97,461.728 1229.5,457.5 Z"/></g>
<g><path style="opacity:1" fill="#d6bd73" d="M 1315.5,447.5 C 1321.69,458.283 1323.85,469.949 1322,482.5C 1321.61,485.599 1320.45,488.266 1318.5,490.5C 1320.45,482.289 1320.95,473.955 1320,465.5C 1317.61,459.719 1316.11,453.719 1315.5,447.5 Z"/></g>
<g><path style="opacity:1" fill="#f7f3db" d="M 1229.5,488.5 C 1231.97,492.771 1234.47,497.104 1237,501.5C 1244.13,511.13 1253.63,516.797 1265.5,518.5C 1271.64,519.49 1277.98,519.823 1284.5,519.5C 1273.01,521.458 1261.67,520.458 1250.5,516.5C 1246.07,515.538 1242.57,513.205 1240,509.5C 1239.67,509.833 1239.33,510.167 1239,510.5C 1236.33,506.5 1233.67,502.5 1231,498.5C 1230.32,497.216 1230.48,496.049 1231.5,495C 1229.98,493.103 1229.32,490.936 1229.5,488.5 Z"/></g>
<g><path style="opacity:1" fill="#e1ce92" d="M 1294.5,515.5 C 1291.91,518.331 1288.58,519.665 1284.5,519.5C 1277.98,519.823 1271.64,519.49 1265.5,518.5C 1275.43,519.28 1285.1,518.28 1294.5,515.5 Z"/></g>
<g><path style="opacity:1" fill="#545453" d="M 995.5,524.5 C 1066.67,523.168 1138,523.168 1209.5,524.5C 1209.38,525.107 1209.04,525.44 1208.5,525.5C 1137.67,524.501 1066.67,524.167 995.5,524.5 Z"/></g>
<g><path style="opacity:1" fill="#121211" d="M 995.5,524.5 C 1066.67,524.167 1137.67,524.501 1208.5,525.5C 1204.52,528.493 1200.19,530.993 1195.5,533C 1175.26,539.634 1155.59,547.634 1136.5,557C 1091.5,557.333 1046.5,557.667 1001.5,558C 996.649,558.174 991.982,558.674 987.5,559.5C 982.29,559.608 977.29,560.275 972.5,561.5C 946.787,564.904 923.121,573.737 901.5,588C 892.15,588.432 882.816,589.099 873.5,590C 859.799,592.846 846.132,595.512 832.5,598C 876.978,552.441 931.311,527.941 995.5,524.5 Z"/></g>
<g><path style="opacity:1" fill="#b7b7b3" d="M 987.5,559.5 C 982.75,561.031 977.75,561.698 972.5,561.5C 977.29,560.275 982.29,559.608 987.5,559.5 Z"/></g>
<g><path style="opacity:1" fill="#d2ba72" d="M 1123.5,591.5 C 1108.34,586.295 1093.18,586.295 1078,591.5C 1067.41,598.338 1059.91,607.671 1055.5,619.5C 1055.5,618.5 1055.5,617.5 1055.5,616.5C 1055.5,616.167 1055.5,615.833 1055.5,615.5C 1056.34,615.158 1056.67,614.492 1056.5,613.5C 1056.5,613.167 1056.5,612.833 1056.5,612.5C 1072.47,585.586 1094.8,578.586 1123.5,591.5 Z"/></g>
<g><path style="opacity:1" fill="#d9b54b" d="M 1123.5,591.5 C 1128.31,594.122 1132.64,597.456 1136.5,601.5C 1136.34,604.518 1136.5,607.518 1137,610.5C 1138.88,613.596 1141.21,616.263 1144,618.5C 1145.81,628.514 1145.81,638.514 1144,648.5C 1138.15,656.491 1131.65,663.824 1124.5,670.5C 1121.36,672.144 1118.36,673.977 1115.5,676C 1109.57,676.235 1103.74,677.069 1098,678.5C 1087.04,677.598 1077.7,673.265 1070,665.5C 1069.52,664.552 1069.35,663.552 1069.5,662.5C 1067.52,662.617 1065.85,661.95 1064.5,660.5C 1064.16,657.964 1063.16,655.797 1061.5,654C 1061.83,653.667 1062.17,653.333 1062.5,653C 1060.58,650.502 1058.92,647.835 1057.5,645C 1058.61,643.187 1057.94,642.354 1055.5,642.5C 1054.21,635.174 1054.21,627.841 1055.5,620.5C 1055.5,620.167 1055.5,619.833 1055.5,619.5C 1059.91,607.671 1067.41,598.338 1078,591.5C 1093.18,586.295 1108.34,586.295 1123.5,591.5 Z"/></g>
<g><path style="opacity:1" fill="#f8f5e4" d="M 1145.5,616.5 C 1143.72,613.348 1142.22,610.015 1141,606.5C 1139.95,604.382 1138.45,602.716 1136.5,601.5C 1132.64,597.456 1128.31,594.122 1123.5,591.5C 1094.8,578.586 1072.47,585.586 1056.5,612.5C 1055,612.585 1054,611.919 1053.5,610.5C 1056.21,606.27 1059.37,601.603 1063,596.5C 1066.64,594.438 1069.47,591.605 1071.5,588C 1072.78,587.316 1073.95,587.483 1075,588.5C 1079.23,584.091 1084.23,582.425 1090,583.5C 1093.6,581.623 1096.94,580.957 1100,581.5C 1102,582.167 1104,582.833 1106,583.5C 1106.67,582.833 1107.33,582.167 1108,581.5C 1112.16,583.87 1116.33,585.37 1120.5,586C 1130.37,589.931 1138.54,597.098 1145,607.5C 1145.5,610.482 1145.66,613.482 1145.5,616.5 Z"/></g>
<g><path style="opacity:1" fill="#3c3c3b" d="M 884.5,614.5 C 941.664,613.501 998.998,613.168 1056.5,613.5C 1056.67,614.492 1056.34,615.158 1055.5,615.5C 998.669,614.501 941.669,614.168 884.5,614.5 Z"/></g>
<g><path style="opacity:1" fill="#121211" d="M 884.5,614.5 C 941.669,614.168 998.669,614.501 1055.5,615.5C 1055.5,615.833 1055.5,616.167 1055.5,616.5C 1054.4,618.277 1053.57,620.277 1053,622.5C 1052.18,628.016 1052.35,633.35 1053.5,638.5C 1053.51,641.545 1053.84,644.545 1054.5,647.5C 998.166,647.333 941.832,647.5 885.5,648C 835.623,652.615 794.456,673.782 762,711.5C 747.095,730.65 738.261,752.317 735.5,776.5C 734.007,782.092 733.341,787.926 733.5,794C 733.501,798.015 733.835,801.849 734.5,805.5C 737.711,835.3 747.211,862.967 763,888.5C 807.329,951.957 867.496,992.457 943.5,1010C 958.393,1012.89 973.393,1014.72 988.5,1015.5C 1087.33,1016.5 1186.33,1016.83 1285.5,1016.5C 1285.01,1018.81 1284.67,1021.14 1284.5,1023.5C 1283.03,1032.13 1283.36,1040.8 1285.5,1049.5C 1184.17,1049.67 1082.83,1049.5 981.5,1049C 885.107,1041.39 806.607,1000.23 746,925.5C 726.301,898.101 711.968,868.101 703,835.5C 688.007,748.729 718.507,683.563 794.5,640C 822.649,624.963 852.649,616.463 884.5,614.5 Z"/></g>
<g><path style="opacity:1" fill="#947f4a" d="M 1055.5,616.5 C 1055.5,617.5 1055.5,618.5 1055.5,619.5C 1055.5,619.833 1055.5,620.167 1055.5,620.5C 1054.73,621.263 1054.23,622.263 1054,623.5C 1053.5,628.489 1053.33,633.489 1053.5,638.5C 1052.35,633.35 1052.18,628.016 1053,622.5C 1053.57,620.277 1054.4,618.277 1055.5,616.5 Z"/></g>
<g><path style="opacity:1" fill="#d6b863" d="M 1136.5,601.5 C 1138.45,602.716 1139.95,604.382 1141,606.5C 1142.22,610.015 1143.72,613.348 1145.5,616.5C 1145.83,617.833 1146.17,619.167 1146.5,620.5C 1151.18,650.309 1139.18,669.809 1110.5,679C 1092.24,681.801 1076.74,676.635 1064,663.5C 1061.64,658.76 1058.81,654.426 1055.5,650.5C 1055.74,649.209 1055.4,648.209 1054.5,647.5C 1053.84,644.545 1053.51,641.545 1053.5,638.5C 1053.33,633.489 1053.5,628.489 1054,623.5C 1054.23,622.263 1054.73,621.263 1055.5,620.5C 1054.21,627.841 1054.21,635.174 1055.5,642.5C 1057.94,642.354 1058.61,643.187 1057.5,645C 1058.92,647.835 1060.58,650.502 1062.5,653C 1062.17,653.333 1061.83,653.667 1061.5,654C 1063.16,655.797 1064.16,657.964 1064.5,660.5C 1065.85,661.95 1067.52,662.617 1069.5,662.5C 1069.35,663.552 1069.52,664.552 1070,665.5C 1077.7,673.265 1087.04,677.598 1098,678.5C 1103.74,677.069 1109.57,676.235 1115.5,676C 1118.36,673.977 1121.36,672.144 1124.5,670.5C 1131.65,663.824 1138.15,656.491 1144,648.5C 1145.81,638.514 1145.81,628.514 1144,618.5C 1141.21,616.263 1138.88,613.596 1137,610.5C 1136.5,607.518 1136.34,604.518 1136.5,601.5 Z"/></g>
<g><path style="opacity:1" fill="#f9f6e6" d="M 1146.5,620.5 C 1148.95,624.363 1149.95,628.697 1149.5,633.5C 1148.91,638.224 1148.91,642.891 1149.5,647.5C 1149.2,650.122 1147.86,652.622 1145.5,655C 1146.05,656.398 1146.38,657.732 1146.5,659C 1142.14,663.364 1137.47,667.364 1132.5,671C 1132.83,671.333 1133.17,671.667 1133.5,672C 1131.95,673.097 1130.61,674.43 1129.5,676C 1125.28,677.472 1120.95,678.472 1116.5,679C 1114.28,681.276 1111.62,682.776 1108.5,683.5C 1104.64,683.292 1100.47,682.959 1096,682.5C 1095.12,684.513 1093.79,684.513 1092,682.5C 1091.67,683.167 1091.33,683.833 1091,684.5C 1090.33,683.167 1089.67,683.167 1089,684.5C 1088.39,682.519 1087.39,682.185 1086,683.5C 1082.89,680.194 1079.05,678.361 1074.5,678C 1073.3,677.097 1072.47,675.931 1072,674.5C 1070.43,675.061 1069.1,674.394 1068,672.5C 1067.59,672.957 1067.09,673.291 1066.5,673.5C 1064.03,670.116 1061.37,666.95 1058.5,664C 1058.83,663.667 1059.17,663.333 1059.5,663C 1057.83,660.667 1056.17,658.333 1054.5,656C 1055.41,654.301 1055.74,652.467 1055.5,650.5C 1058.81,654.426 1061.64,658.76 1064,663.5C 1076.74,676.635 1092.24,681.801 1110.5,679C 1139.18,669.809 1151.18,650.309 1146.5,620.5 Z"/></g>
<g><path style="opacity:1" fill="#121212" d="M 968.5,868.5 C 970.515,869.924 972.848,870.59 975.5,870.5C 983.642,872.798 991.976,873.965 1000.5,874C 1063.17,874.5 1125.83,874.667 1188.5,874.5C 1187.96,876.117 1187.63,877.784 1187.5,879.5C 1185.94,883.203 1185.28,887.203 1185.5,891.5C 1185.5,894.686 1185.84,897.686 1186.5,900.5C 1186.58,903.206 1186.91,905.873 1187.5,908.5C 1124.5,908.5 1061.5,908.5 998.5,908.5C 919.742,901.257 863.242,861.924 829,790.5C 817.372,760.911 813.372,730.244 817,698.5C 828.29,691.103 840.457,685.77 853.5,682.5C 845.82,724.42 852.654,763.753 874,800.5C 896.956,834.944 928.456,857.611 968.5,868.5 Z"/></g>
<g><path style="opacity:1" fill="#80807d" d="M 778.5,732.5 C 778.56,731.957 778.893,731.624 779.5,731.5C 780.489,735.107 780.823,738.774 780.5,742.5C 779.833,739.167 779.167,735.833 778.5,732.5 Z"/></g>
<g><path style="opacity:1" fill="#121211" d="M 778.5,732.5 C 779.167,735.833 779.833,739.167 780.5,742.5C 785.467,798.266 808.467,845.099 849.5,883C 888.483,917.984 934.15,938.651 986.5,945C 1036.82,946.104 1087.15,946.937 1137.5,947.5C 1139.02,949.858 1141.02,951.691 1143.5,953C 1160.2,959.345 1177.2,964.678 1194.5,969C 1199.32,971.662 1203.98,974.495 1208.5,977.5C 1188.5,978.167 1168.5,978.833 1148.5,979.5C 1096.83,979.667 1045.17,979.5 993.5,979C 914.528,972.933 849.694,939.766 799,879.5C 780.559,857.282 768.559,831.948 763,803.5C 760.042,777.917 765.209,754.251 778.5,732.5 Z"/></g>
<g><path style="opacity:1" fill="#b5b4b0" d="M 735.5,776.5 C 734.852,786.153 734.518,795.82 734.5,805.5C 733.835,801.849 733.501,798.015 733.5,794C 733.341,787.926 734.007,782.092 735.5,776.5 Z"/></g>
<g><path style="opacity:1" fill="#dfcd92" d="M 1245.5,845.5 C 1247.26,846.313 1248.93,847.313 1250.5,848.5C 1239.17,845.864 1227.84,845.864 1216.5,848.5C 1217.4,847.842 1218.4,847.176 1219.5,846.5C 1228.14,845.502 1236.81,845.169 1245.5,845.5 Z"/></g>
<g><path style="opacity:1" fill="#f8f5e3" d="M 1245.5,845.5 C 1249.48,846.021 1253.48,846.354 1257.5,846.5C 1257.5,847.833 1257.5,849.167 1257.5,850.5C 1260.08,850.083 1262.25,850.75 1264,852.5C 1264.33,852.167 1264.67,851.833 1265,851.5C 1265.66,853.916 1267.16,855.582 1269.5,856.5C 1270.35,858.955 1271.35,861.288 1272.5,863.5C 1269.99,862.079 1267.66,860.412 1265.5,858.5C 1264.83,857.5 1264.17,856.5 1263.5,855.5C 1263.05,854.542 1262.38,853.708 1261.5,853C 1257.77,851.465 1254.11,849.965 1250.5,848.5C 1248.93,847.313 1247.26,846.313 1245.5,845.5 Z"/></g>
<g><path style="opacity:1" fill="#d9b54b" d="M 1263.5,855.5 C 1264.17,856.5 1264.83,857.5 1265.5,858.5C 1269.11,863.64 1272.61,868.973 1276,874.5C 1276.41,879.309 1277.41,883.976 1279,888.5C 1279.6,893.88 1279.26,899.213 1278,904.5C 1275.65,908.203 1274.15,912.203 1273.5,916.5C 1271.9,920.095 1269.9,923.429 1267.5,926.5C 1263.88,928.131 1260.88,930.465 1258.5,933.5C 1240.7,941.701 1223.03,941.367 1205.5,932.5C 1198.24,926.572 1192.91,919.239 1189.5,910.5C 1188.63,907.22 1187.96,903.887 1187.5,900.5C 1187.66,897.19 1188.66,894.19 1190.5,891.5C 1188.98,889.208 1189.31,887.208 1191.5,885.5C 1189.03,883.902 1189.03,882.402 1191.5,881C 1190.3,877.869 1190.3,874.702 1191.5,871.5C 1197.73,864.6 1204.4,857.933 1211.5,851.5C 1229.34,847.04 1246.67,848.373 1263.5,855.5 Z"/></g>
<g><path style="opacity:1" fill="#d7b962" d="M 1250.5,848.5 C 1254.11,849.965 1257.77,851.465 1261.5,853C 1262.38,853.708 1263.05,854.542 1263.5,855.5C 1246.67,848.373 1229.34,847.04 1211.5,851.5C 1212.66,849.75 1214.33,848.75 1216.5,848.5C 1227.84,845.864 1239.17,845.864 1250.5,848.5 Z"/></g>
<g><path style="opacity:1" fill="#f9f6e4" d="M 1245.5,845.5 C 1236.81,845.169 1228.14,845.502 1219.5,846.5C 1218.4,847.176 1217.4,847.842 1216.5,848.5C 1214.33,848.75 1212.66,849.75 1211.5,851.5C 1201.91,855.093 1195.24,861.759 1191.5,871.5C 1190.5,872.167 1189.5,872.833 1188.5,873.5C 1187.34,870.747 1187.84,868.081 1190,865.5C 1194.24,861.055 1198.9,857.055 1204,853.5C 1204.48,852.552 1204.65,851.552 1204.5,850.5C 1208.95,849.694 1212.78,847.694 1216,844.5C 1216.33,844.833 1216.67,845.167 1217,845.5C 1220.89,843.517 1224.89,842.851 1229,843.5C 1229.33,842.833 1229.67,842.167 1230,841.5C 1235.49,841.931 1240.66,843.264 1245.5,845.5 Z"/></g>
<g><path style="opacity:1" fill="#d7ba69" d="M 1211.5,851.5 C 1204.4,857.933 1197.73,864.6 1191.5,871.5C 1195.24,861.759 1201.91,855.093 1211.5,851.5 Z"/></g>
<g><path style="opacity:1" fill="#f9f7e7" d="M 1272.5,864.5 C 1273.98,864.238 1275.31,864.571 1276.5,865.5C 1277.42,867.924 1278.92,869.924 1281,871.5C 1283.33,880.427 1284.83,889.26 1285.5,898C 1283.75,902.885 1281.42,907.385 1278.5,911.5C 1278.63,909.784 1278.96,908.117 1279.5,906.5C 1283.85,891.314 1281.52,877.314 1272.5,864.5 Z"/></g>
<g><path style="opacity:1" fill="#a0a09f" d="M 968.5,868.5 C 971.152,868.41 973.485,869.076 975.5,870.5C 972.848,870.59 970.515,869.924 968.5,868.5 Z"/></g>
<g><path style="opacity:1" fill="#d7bb68" d="M 1265.5,858.5 C 1267.66,860.412 1269.99,862.079 1272.5,863.5C 1272.5,863.833 1272.5,864.167 1272.5,864.5C 1281.52,877.314 1283.85,891.314 1279.5,906.5C 1278.03,910.089 1276.03,913.422 1273.5,916.5C 1274.15,912.203 1275.65,908.203 1278,904.5C 1279.26,899.213 1279.6,893.88 1279,888.5C 1277.41,883.976 1276.41,879.309 1276,874.5C 1272.61,868.973 1269.11,863.64 1265.5,858.5 Z"/></g>
<g><path style="opacity:1" fill="#d6b361" d="M 1191.5,871.5 C 1190.3,874.702 1190.3,877.869 1191.5,881C 1189.03,882.402 1189.03,883.902 1191.5,885.5C 1189.31,887.208 1188.98,889.208 1190.5,891.5C 1188.66,894.19 1187.66,897.19 1187.5,900.5C 1187.96,903.887 1188.63,907.22 1189.5,910.5C 1188.5,910.167 1187.83,909.5 1187.5,908.5C 1186.91,905.873 1186.58,903.206 1186.5,900.5C 1186.33,893.465 1186.66,886.465 1187.5,879.5C 1187.63,877.784 1187.96,876.117 1188.5,874.5C 1188.5,874.167 1188.5,873.833 1188.5,873.5C 1189.5,872.833 1190.5,872.167 1191.5,871.5 Z"/></g>
<g><path style="opacity:1" fill="#a08652" d="M 1187.5,879.5 C 1186.66,886.465 1186.33,893.465 1186.5,900.5C 1185.84,897.686 1185.5,894.686 1185.5,891.5C 1185.28,887.203 1185.94,883.203 1187.5,879.5 Z"/></g>
<g><path style="opacity:1" fill="#f2e7b8" d="M 1279.5,906.5 C 1278.96,908.117 1278.63,909.784 1278.5,911.5C 1277.44,914.622 1276.11,917.622 1274.5,920.5C 1272.17,922.5 1269.83,924.5 1267.5,926.5C 1269.9,923.429 1271.9,920.095 1273.5,916.5C 1276.03,913.422 1278.03,910.089 1279.5,906.5 Z"/></g>
<g><path style="opacity:1" fill="#d9d8ce" d="M 998.5,908.5 C 1061.5,908.5 1124.5,908.5 1187.5,908.5C 1187.83,909.5 1188.5,910.167 1189.5,910.5C 1192.91,919.239 1198.24,926.572 1205.5,932.5C 1208.79,937.24 1213.46,939.74 1219.5,940C 1230.96,941.089 1242.29,940.422 1253.5,938C 1255.66,937.004 1257.33,935.504 1258.5,933.5C 1260.88,930.465 1263.88,928.131 1267.5,926.5C 1269.83,924.5 1272.17,922.5 1274.5,920.5C 1273.65,923.223 1272.48,925.89 1271,928.5C 1268.33,929.833 1266.33,931.833 1265,934.5C 1264.67,934.167 1264.33,933.833 1264,933.5C 1261.86,936.211 1259.2,938.211 1256,939.5C 1255.67,939.167 1255.33,938.833 1255,938.5C 1252.59,941.526 1249.59,942.526 1246,941.5C 1245,942.167 1244,942.833 1243,943.5C 1241.09,943.579 1239.09,943.246 1237,942.5C 1234.1,943.466 1231.44,944.132 1229,944.5C 1222.52,943.563 1216.02,941.73 1209.5,939C 1200.21,932.717 1192.71,924.884 1187,915.5C 1186.5,913.527 1186.34,911.527 1186.5,909.5C 1123.66,909.832 1061,909.499 998.5,908.5 Z"/></g>
<g><path style="opacity:1" fill="#f5eec6" d="M 1205.5,932.5 C 1223.03,941.367 1240.7,941.701 1258.5,933.5C 1257.33,935.504 1255.66,937.004 1253.5,938C 1242.29,940.422 1230.96,941.089 1219.5,940C 1213.46,939.74 1208.79,937.24 1205.5,932.5 Z"/></g>
<g><path style="opacity:1" fill="#2e2f2d" d="M 1208.5,977.5 C 1209.29,977.783 1209.96,978.283 1210.5,979C 1189.84,979.5 1169.17,979.667 1148.5,979.5C 1168.5,978.833 1188.5,978.167 1208.5,977.5 Z"/></g>
<g><path style="opacity:1" fill="#f9f5de" d="M 1355.5,991.5 C 1344.55,985.858 1332.88,984.024 1320.5,986C 1317.24,987.467 1313.91,988.633 1310.5,989.5C 1313.55,986.643 1317.21,984.81 1321.5,984C 1328.22,983.796 1334.88,983.296 1341.5,982.5C 1346.12,983.177 1350.45,984.677 1354.5,987C 1355.38,988.356 1355.71,989.856 1355.5,991.5 Z"/></g>
<g><path style="opacity:1" fill="#d3b967" d="M 1355.5,991.5 C 1363.82,997.488 1370.82,1004.82 1376.5,1013.5C 1381.21,1027.55 1380.38,1041.21 1374,1054.5C 1373.05,1056.09 1371.88,1057.43 1370.5,1058.5C 1372.96,1051.92 1375.12,1045.25 1377,1038.5C 1377.32,1034.33 1377.49,1030.33 1377.5,1026.5C 1374.88,1021.02 1372.71,1015.35 1371,1009.5C 1368.68,1008.19 1367.34,1006.19 1367,1003.5C 1360.92,999.568 1354.76,995.902 1348.5,992.5C 1348.19,989.654 1346.52,988.154 1343.5,988C 1332.92,986.711 1322.59,987.711 1312.5,991C 1308.82,994.457 1304.48,996.79 1299.5,998C 1297.59,1000.62 1295.59,1003.12 1293.5,1005.5C 1292.64,1008.53 1291.14,1011.19 1289,1013.5C 1286.17,1026.11 1285.84,1038.78 1288,1051.5C 1288.33,1051.17 1288.67,1050.83 1289,1050.5C 1292.38,1056.05 1295.55,1061.72 1298.5,1067.5C 1294.4,1064.41 1291.07,1060.74 1288.5,1056.5C 1287.77,1054.05 1286.77,1051.71 1285.5,1049.5C 1283.36,1040.8 1283.03,1032.13 1284.5,1023.5C 1286.04,1021.16 1286.71,1018.5 1286.5,1015.5C 1286.56,1014.39 1286.89,1013.39 1287.5,1012.5C 1290.05,1008.09 1292.88,1003.76 1296,999.5C 1300.48,996.024 1304.98,992.69 1309.5,989.5C 1309.83,989.5 1310.17,989.5 1310.5,989.5C 1313.91,988.633 1317.24,987.467 1320.5,986C 1332.88,984.024 1344.55,985.858 1355.5,991.5 Z"/></g>
<g><path style="opacity:1" fill="#dab64b" d="M 1370.5,1058.5 C 1369.47,1060.52 1368.47,1062.52 1367.5,1064.5C 1361.35,1069.66 1354.68,1073.99 1347.5,1077.5C 1338.19,1078.55 1328.86,1078.72 1319.5,1078C 1312.14,1074.98 1305.14,1071.48 1298.5,1067.5C 1295.55,1061.72 1292.38,1056.05 1289,1050.5C 1288.67,1050.83 1288.33,1051.17 1288,1051.5C 1285.84,1038.78 1286.17,1026.11 1289,1013.5C 1291.14,1011.19 1292.64,1008.53 1293.5,1005.5C 1295.59,1003.12 1297.59,1000.62 1299.5,998C 1304.48,996.79 1308.82,994.457 1312.5,991C 1322.59,987.711 1332.92,986.711 1343.5,988C 1346.52,988.154 1348.19,989.654 1348.5,992.5C 1354.76,995.902 1360.92,999.568 1367,1003.5C 1367.34,1006.19 1368.68,1008.19 1371,1009.5C 1372.71,1015.35 1374.88,1021.02 1377.5,1026.5C 1377.49,1030.33 1377.32,1034.33 1377,1038.5C 1375.12,1045.25 1372.96,1051.92 1370.5,1058.5 Z"/></g>
<g><path style="opacity:1" fill="#f7f1d2" d="M 1309.5,989.5 C 1304.98,992.69 1300.48,996.024 1296,999.5C 1292.88,1003.76 1290.05,1008.09 1287.5,1012.5C 1289.02,1007 1291.68,1002 1295.5,997.5C 1299.98,994.269 1304.64,991.602 1309.5,989.5 Z"/></g>
<g><path style="opacity:1" fill="#8d8c89" d="M 988.5,1015.5 C 1087.83,1015.5 1187.17,1015.5 1286.5,1015.5C 1286.71,1018.5 1286.04,1021.16 1284.5,1023.5C 1284.67,1021.14 1285.01,1018.81 1285.5,1016.5C 1186.33,1016.83 1087.33,1016.5 988.5,1015.5 Z"/></g>
<g><path style="opacity:1" fill="#f9f8e9" d="M 1355.5,991.5 C 1363.71,992.701 1369.71,997.034 1373.5,1004.5C 1374.47,1006.4 1374.8,1008.4 1374.5,1010.5C 1375.98,1010.24 1377.31,1010.57 1378.5,1011.5C 1380.52,1014.39 1381.85,1017.55 1382.5,1021C 1382.78,1029.72 1382.28,1038.56 1381,1047.5C 1379.13,1050.59 1377.79,1053.92 1377,1057.5C 1376.29,1058.38 1375.46,1059.05 1374.5,1059.5C 1376.21,1054.55 1378.04,1049.55 1380,1044.5C 1380.67,1036.5 1380.67,1028.5 1380,1020.5C 1379.56,1017.6 1378.4,1015.27 1376.5,1013.5C 1370.82,1004.82 1363.82,997.488 1355.5,991.5 Z"/></g>
<g><path style="opacity:1" fill="#f7f1ce" d="M 1376.5,1013.5 C 1378.4,1015.27 1379.56,1017.6 1380,1020.5C 1380.67,1028.5 1380.67,1036.5 1380,1044.5C 1378.04,1049.55 1376.21,1054.55 1374.5,1059.5C 1372.39,1061.63 1370.06,1063.3 1367.5,1064.5C 1368.47,1062.52 1369.47,1060.52 1370.5,1058.5C 1371.88,1057.43 1373.05,1056.09 1374,1054.5C 1380.38,1041.21 1381.21,1027.55 1376.5,1013.5 Z"/></g>
<g><path style="opacity:1" fill="#f9f7e7" d="M 1288.5,1056.5 C 1291.07,1060.74 1294.4,1064.41 1298.5,1067.5C 1301.06,1070.46 1304.06,1072.96 1307.5,1075C 1311.27,1076.05 1314.93,1077.38 1318.5,1079C 1327.17,1079.67 1335.83,1079.67 1344.5,1079C 1345.74,1078.77 1346.74,1078.27 1347.5,1077.5C 1354.68,1073.99 1361.35,1069.66 1367.5,1064.5C 1364.43,1068.91 1360.93,1072.91 1357,1076.5C 1356.67,1076.17 1356.33,1075.83 1356,1075.5C 1355,1076.83 1354,1078.17 1353,1079.5C 1352.67,1079.17 1352.33,1078.83 1352,1078.5C 1351.61,1079.43 1350.95,1080.09 1350,1080.5C 1345.19,1081.44 1340.53,1082.77 1336,1084.5C 1335.33,1083.83 1334.67,1083.17 1334,1082.5C 1331.33,1083.17 1328.67,1083.83 1326,1084.5C 1319.74,1083.08 1313.58,1081.25 1307.5,1079C 1306.66,1077.99 1306.33,1076.82 1306.5,1075.5C 1305.07,1075.42 1303.74,1075.75 1302.5,1076.5C 1300.35,1074.96 1298.35,1073.29 1296.5,1071.5C 1295.27,1070.35 1295.27,1069.18 1296.5,1068C 1293.67,1065.83 1291.17,1063.33 1289,1060.5C 1288.51,1059.21 1288.34,1057.87 1288.5,1056.5 Z"/></g>
<g><path style="opacity:1" fill="#dbc57c" d="M 1298.5,1067.5 C 1305.14,1071.48 1312.14,1074.98 1319.5,1078C 1328.86,1078.72 1338.19,1078.55 1347.5,1077.5C 1346.74,1078.27 1345.74,1078.77 1344.5,1079C 1335.83,1079.67 1327.17,1079.67 1318.5,1079C 1314.93,1077.38 1311.27,1076.05 1307.5,1075C 1304.06,1072.96 1301.06,1070.46 1298.5,1067.5 Z"/></g>
<g><path style="opacity:1" fill="#b4b4b2" d="M 610.5,1190.5 C 616.835,1190.24 622.835,1191.24 628.5,1193.5C 622.28,1193.04 616.28,1192.04 610.5,1190.5 Z"/></g>
<g><path style="opacity:1" fill="#121212" d="M 1165.5,1190.5 C 1200.6,1186.94 1233.27,1194.11 1263.5,1212C 1303.5,1242.97 1314.33,1282.14 1296,1329.5C 1284.99,1352.18 1267.82,1368.34 1244.5,1378C 1203.18,1393.83 1162.18,1393.17 1121.5,1376C 1076.59,1351.28 1059.42,1313.78 1070,1263.5C 1082.14,1228.7 1105.97,1206.2 1141.5,1196C 1149.59,1194.08 1157.59,1192.25 1165.5,1190.5 Z"/></g>
<g><path style="opacity:1" fill="#121212" d="M 610.5,1190.5 C 616.28,1192.04 622.28,1193.04 628.5,1193.5C 650.363,1198.6 670.697,1207.27 689.5,1219.5C 690.521,1220 690.688,1220.67 690,1221.5C 681.988,1228.85 673.988,1236.18 666,1243.5C 646.258,1231.35 624.758,1224.69 601.5,1223.5C 594.11,1222.15 586.777,1222.48 579.5,1224.5C 551.533,1226.72 530.366,1239.72 516,1263.5C 502.477,1307.29 517.311,1336.79 560.5,1352C 598.399,1361.41 633.732,1355.57 666.5,1334.5C 674.625,1343.13 682.958,1351.63 691.5,1360C 664.469,1378.55 634.469,1388.22 601.5,1389C 568.654,1390.97 538.321,1383.3 510.5,1366C 477.313,1340.79 464.813,1307.62 473,1266.5C 482.976,1236.06 502.809,1214.56 532.5,1202C 557.56,1192.06 583.56,1188.23 610.5,1190.5 Z"/></g>
<g><path style="opacity:1" fill="#131312" d="M 966.5,1194.5 C 973.833,1194.5 981.167,1194.5 988.5,1194.5C 988.783,1195.29 989.283,1195.96 990,1196.5C 994.401,1195.53 998.901,1195.2 1003.5,1195.5C 1003.5,1257.83 1003.5,1320.17 1003.5,1382.5C 991.833,1382.5 980.167,1382.5 968.5,1382.5C 968.5,1339.17 968.5,1295.83 968.5,1252.5C 968.631,1251.76 968.464,1251.09 968,1250.5C 941.712,1285.58 915.545,1320.74 889.5,1356C 881.254,1356.81 873.088,1356.65 865,1355.5C 838.563,1320.9 812.73,1285.9 787.5,1250.5C 787.44,1249.96 787.107,1249.62 786.5,1249.5C 785.5,1293.83 785.167,1338.16 785.5,1382.5C 773.545,1384.48 761.212,1385.15 748.5,1384.5C 748.5,1320.83 748.5,1257.17 748.5,1193.5C 762.183,1193.17 775.85,1193.5 789.5,1194.5C 818.112,1235.59 847.612,1275.93 878,1315.5C 907.724,1275.28 937.224,1234.95 966.5,1194.5 Z"/></g>
<g><path style="opacity:1" fill="#121212" d="M 1577.5,1383.5 C 1561.68,1384.5 1545.68,1384.83 1529.5,1384.5C 1511.5,1361.83 1493.5,1339.17 1475.5,1316.5C 1451.34,1315.5 1427.01,1315.17 1402.5,1315.5C 1402.5,1338.5 1402.5,1361.5 1402.5,1384.5C 1390.17,1384.5 1377.83,1384.5 1365.5,1384.5C 1365.5,1320.83 1365.5,1257.17 1365.5,1193.5C 1411.17,1193.33 1456.83,1193.5 1502.5,1194C 1518.36,1196.17 1533.03,1201.51 1546.5,1210C 1568.83,1230.68 1573.33,1254.84 1560,1282.5C 1554.83,1291.67 1547.67,1298.83 1538.5,1304C 1531.31,1306.62 1524.31,1309.62 1517.5,1313C 1537.39,1336.62 1557.39,1360.12 1577.5,1383.5 Z"/></g>
<g><path style="opacity:1" fill="#171716" d="M 982.5,1197.5 C 985.185,1199.5 987.685,1199.5 990,1197.5C 994.147,1198.56 998.147,1199.23 1002,1199.5C 1001.5,1213.42 1001.34,1227.75 1001.5,1242.5C 1000.91,1242.71 1000.41,1243.04 1000,1243.5C 998.868,1241.66 998.035,1239.66 997.5,1237.5C 996.271,1236.72 994.938,1236.22 993.5,1236C 994.337,1234.99 994.67,1233.82 994.5,1232.5C 993.5,1232.5 992.5,1232.5 991.5,1232.5C 991.207,1236.44 991.54,1240.27 992.5,1244C 991.833,1245 991.167,1246 990.5,1247C 991.114,1254.03 991.114,1260.69 990.5,1267C 990.996,1269 991.996,1270.66 993.5,1272C 992.229,1274.55 991.562,1277.39 991.5,1280.5C 992.453,1286.16 992.786,1291.5 992.5,1296.5C 992.192,1297.31 991.692,1297.97 991,1298.5C 990.727,1296.9 990.227,1295.4 989.5,1294C 989.667,1288.83 989.833,1283.67 990,1278.5C 987.266,1279.36 987.099,1280.19 989.5,1281C 986.678,1284.17 985.511,1283.67 986,1279.5C 985,1279.5 984,1279.5 983,1279.5C 981.167,1277.67 979.333,1275.83 977.5,1274C 978.343,1271.16 980.177,1269.33 983,1268.5C 984.043,1272.23 984.543,1271.89 984.5,1267.5C 981.074,1267.65 980.741,1266.48 983.5,1264C 983,1263.5 982.5,1263 982,1262.5C 981.316,1264.36 980.316,1266.03 979,1267.5C 978.5,1267 978,1266.5 977.5,1266C 978.364,1263.44 980.031,1261.6 982.5,1260.5C 980.626,1260.91 978.96,1260.07 977.5,1258C 978.167,1257 978.833,1256 979.5,1255C 977.886,1253.93 976.552,1252.43 975.5,1250.5C 976.758,1251.02 977.758,1250.35 978.5,1248.5C 977.738,1248.09 976.738,1247.92 975.5,1248C 975.959,1246.06 974.959,1244.72 972.5,1244C 973.253,1242.51 974.086,1242.35 975,1243.5C 977.042,1241.49 976.709,1239.82 974,1238.5C 973.282,1239.45 972.449,1239.62 971.5,1239C 970.833,1237 969.5,1235.67 967.5,1235C 969.722,1232.73 972.055,1230.57 974.5,1228.5C 974.333,1228.17 974.167,1227.83 974,1227.5C 972.401,1229.04 970.567,1229.54 968.5,1229C 971.001,1227.58 970.668,1226.58 967.5,1226C 969.878,1222.73 970.545,1221.23 969.5,1221.5C 965.927,1220.63 965.927,1219.13 969.5,1217C 967.109,1216.31 967.109,1215.31 969.5,1214C 967.219,1212.15 967.219,1210.48 969.5,1209C 968.949,1207.6 968.616,1206.27 968.5,1205C 970.004,1203.51 970.837,1201.68 971,1199.5C 972,1199.83 973,1200.17 974,1200.5C 975.312,1198.34 976.978,1198.01 979,1199.5C 980.302,1198.92 981.469,1198.25 982.5,1197.5 Z"/></g>
<g><path style="opacity:1" fill="#454746" d="M 966.5,1194.5 C 979.323,1193.5 992.323,1193.17 1005.5,1193.5C 1005.5,1257.17 1005.5,1320.83 1005.5,1384.5C 1005.17,1384.5 1004.83,1384.5 1004.5,1384.5C 1004.5,1321.17 1004.5,1257.83 1004.5,1194.5C 999.167,1194.5 993.833,1194.5 988.5,1194.5C 981.167,1194.5 973.833,1194.5 966.5,1194.5 Z"/></g>
<g><path style="opacity:1" fill="#acaca8" d="M 601.5,1223.5 C 594.16,1223.72 586.827,1224.06 579.5,1224.5C 586.777,1222.48 594.11,1222.15 601.5,1223.5 Z"/></g>
<g><path style="opacity:1" fill="#f8f8f8" d="M 1263.5,1272.5 C 1263.41,1275.15 1264.08,1277.49 1265.5,1279.5C 1267.53,1319.24 1249.2,1344.07 1210.5,1354C 1204.22,1355.32 1197.89,1356.15 1191.5,1356.5C 1182.45,1356.38 1173.45,1355.71 1164.5,1354.5C 1131.95,1348.79 1112.45,1329.79 1106,1297.5C 1103.72,1269.55 1114.56,1248.38 1138.5,1234C 1167.34,1219.83 1196.67,1218.83 1226.5,1231C 1244.68,1239.68 1257.02,1253.51 1263.5,1272.5 Z"/></g>
<g><path style="opacity:1" fill="#f9f9f8" d="M 1496.5,1226.5 C 1514.77,1226.94 1525.43,1236.11 1528.5,1254C 1528.08,1263.65 1524.08,1271.32 1516.5,1277C 1511.57,1279.2 1506.57,1281.2 1501.5,1283C 1468.84,1283.5 1436.17,1283.67 1403.5,1283.5C 1403.5,1264.5 1403.5,1245.5 1403.5,1226.5C 1434.5,1226.5 1465.5,1226.5 1496.5,1226.5 Z"/></g>
<g><path style="opacity:1" fill="#979895" d="M 1496.5,1226.5 C 1465.5,1226.5 1434.5,1226.5 1403.5,1226.5C 1403.5,1245.5 1403.5,1264.5 1403.5,1283.5C 1402.5,1264.34 1402.17,1245.01 1402.5,1225.5C 1434,1225.17 1465.34,1225.5 1496.5,1226.5 Z"/></g>
<g><path style="opacity:1" fill="#020202" d="M 988.5,1194.5 C 993.833,1194.5 999.167,1194.5 1004.5,1194.5C 1004.5,1257.83 1004.5,1321.17 1004.5,1384.5C 992.12,1385.15 980.12,1384.48 968.5,1382.5C 980.167,1382.5 991.833,1382.5 1003.5,1382.5C 1003.5,1320.17 1003.5,1257.83 1003.5,1195.5C 998.901,1195.2 994.401,1195.53 990,1196.5C 989.283,1195.96 988.783,1195.29 988.5,1194.5 Z"/></g>
<g><path style="opacity:1" fill="#171716" d="M 774.5,1198.5 C 775.707,1199.19 777.041,1199.36 778.5,1199C 775.982,1200.5 773.482,1202 771,1203.5C 770.667,1203.17 770.333,1202.83 770,1202.5C 769.691,1203.77 769.191,1204.93 768.5,1206C 769.744,1206.46 770.577,1205.96 771,1204.5C 773.09,1205.15 775.257,1205.32 777.5,1205C 776.366,1206.02 776.699,1206.68 778.5,1207C 777.5,1207.83 776.5,1208.67 775.5,1209.5C 777.155,1210.18 779.155,1211.01 781.5,1212C 781.167,1212.33 780.833,1212.67 780.5,1213C 783.682,1216.1 783.015,1217.76 778.5,1218C 779.572,1219.28 780.905,1219.62 782.5,1219C 782.321,1223.79 783.821,1224.29 787,1220.5C 787.507,1222 787.007,1223.16 785.5,1224C 786.451,1224.72 786.617,1225.55 786,1226.5C 785.163,1224.99 783.996,1224.49 782.5,1225C 783.167,1227 783.833,1229 784.5,1231C 783.833,1231.33 783.167,1231.67 782.5,1232C 782.807,1233.68 783.14,1235.35 783.5,1237C 780.862,1238.6 779.195,1240.93 778.5,1244C 779.126,1244.75 779.626,1245.58 780,1246.5C 780.965,1244.74 782.132,1244.41 783.5,1245.5C 782.086,1246.62 780.586,1247.62 779,1248.5C 777.333,1247.83 775.667,1247.17 774,1246.5C 772.209,1247.91 771.042,1249.75 770.5,1252C 771.133,1255.46 771.8,1258.96 772.5,1262.5C 773.287,1261.76 773.953,1260.92 774.5,1260C 774.943,1258.48 774.276,1257.31 772.5,1256.5C 773.025,1255.81 773.692,1255.31 774.5,1255C 773.949,1253.6 773.616,1252.27 773.5,1251C 774.656,1249.39 775.989,1249.39 777.5,1251C 774.833,1251.67 774.833,1252.33 777.5,1253C 776.296,1254.35 775.629,1256.02 775.5,1258C 776.054,1260.49 776.054,1262.83 775.5,1265C 775.833,1265.5 776.167,1266 776.5,1266.5C 779.027,1262.61 780.027,1263.28 779.5,1268.5C 779.448,1273.94 779.115,1279.44 778.5,1285C 779.268,1290.94 779.935,1296.6 780.5,1302C 779.09,1302.37 778.09,1303.2 777.5,1304.5C 777.846,1305.7 778.346,1305.7 779,1304.5C 779.667,1309.17 779.667,1313.83 779,1318.5C 776.919,1319.21 774.753,1320.21 772.5,1321.5C 771.369,1323.07 771.202,1324.74 772,1326.5C 772.925,1325.95 773.758,1325.29 774.5,1324.5C 773.833,1324.17 773.167,1323.83 772.5,1323.5C 774.721,1320.59 775.721,1320.92 775.5,1324.5C 775.333,1325.5 775.167,1326.5 775,1327.5C 774.667,1327.17 774.333,1326.83 774,1326.5C 773.813,1328.89 772.98,1330.06 771.5,1330C 773.155,1330.3 774.488,1331.64 775.5,1334C 773.753,1334.47 772.087,1335.8 770.5,1338C 771.227,1339.4 771.727,1340.9 772,1342.5C 773.584,1341.14 775.418,1340.47 777.5,1340.5C 777.543,1344.89 777.043,1345.23 776,1341.5C 771.382,1343.74 770.549,1346.91 773.5,1351C 772.23,1351.9 771.23,1353.07 770.5,1354.5C 768.078,1352.71 768.078,1351.05 770.5,1349.5C 769.689,1347.22 769.689,1344.72 770.5,1342C 769.833,1341.67 769.167,1341.33 768.5,1341C 768.645,1335.59 768.645,1330.09 768.5,1324.5C 770.836,1323.41 770.836,1322.07 768.5,1320.5C 767.796,1323.7 767.13,1326.87 766.5,1330C 767.817,1339.11 767.817,1348.27 766.5,1357.5C 766.167,1357 765.833,1356.5 765.5,1356C 766.874,1352.47 766.541,1348.8 764.5,1345C 765.357,1344.31 766.023,1343.48 766.5,1342.5C 765.855,1339.81 765.855,1337.31 766.5,1335C 765.707,1333.91 765.04,1332.75 764.5,1331.5C 765.162,1326.83 765.162,1322 764.5,1317C 764.755,1315.67 765.422,1314.67 766.5,1314C 765.484,1313.48 764.818,1312.65 764.5,1311.5C 765.603,1309.72 765.603,1307.89 764.5,1306C 764.755,1304.67 765.422,1303.67 766.5,1303C 765.296,1301.65 764.629,1299.98 764.5,1298C 764.324,1284.06 764.657,1270.72 765.5,1258C 763.351,1255.2 763.685,1252.53 766.5,1250C 765.338,1249.17 764.171,1248.34 763,1247.5C 762.5,1247.67 762,1247.83 761.5,1248C 763.158,1248.73 763.658,1249.89 763,1251.5C 762.667,1251.17 762.333,1250.83 762,1250.5C 761.667,1252.17 761.333,1253.83 761,1255.5C 760.5,1241.74 760,1228.58 759.5,1216C 760.573,1214.41 761.573,1212.91 762.5,1211.5C 761.413,1210.89 760.246,1211.23 759,1212.5C 755.165,1209.4 755.165,1206.73 759,1204.5C 758.43,1206.69 758.764,1208.69 760,1210.5C 761.617,1209.46 761.784,1208.3 760.5,1207C 763.167,1206 765.833,1205 768.5,1204C 767.167,1203.33 767.167,1202.67 768.5,1202C 770.879,1201.28 772.879,1200.12 774.5,1198.5 Z"/></g>
<g><path style="opacity:1" fill="#9e9f9a" d="M 1263.5,1272.5 C 1264.92,1274.51 1265.59,1276.85 1265.5,1279.5C 1264.08,1277.49 1263.41,1275.15 1263.5,1272.5 Z"/></g>
<g><path style="opacity:1" fill="#b4b4b1" d="M 787.5,1250.5 C 786.501,1294.33 786.168,1338.33 786.5,1382.5C 786.167,1382.5 785.833,1382.5 785.5,1382.5C 785.167,1338.16 785.5,1293.83 786.5,1249.5C 787.107,1249.62 787.44,1249.96 787.5,1250.5 Z"/></g>
<g><path style="opacity:1" fill="#858583" d="M 1475.5,1316.5 C 1451.5,1316.5 1427.5,1316.5 1403.5,1316.5C 1403.5,1339.5 1403.5,1362.5 1403.5,1385.5C 1390.66,1385.83 1377.99,1385.5 1365.5,1384.5C 1377.83,1384.5 1390.17,1384.5 1402.5,1384.5C 1402.5,1361.5 1402.5,1338.5 1402.5,1315.5C 1427.01,1315.17 1451.34,1315.5 1475.5,1316.5 Z"/></g>
<g><path style="opacity:1" fill="#a2a2a0" d="M 1164.5,1354.5 C 1173.45,1355.71 1182.45,1356.38 1191.5,1356.5C 1182.38,1357.96 1173.38,1357.29 1164.5,1354.5 Z"/></g>
<g><path style="opacity:1" fill="#646463" d="M 785.5,1382.5 C 785.833,1382.5 786.167,1382.5 786.5,1382.5C 786.5,1383.5 786.5,1384.5 786.5,1385.5C 773.656,1385.83 760.989,1385.5 748.5,1384.5C 761.212,1385.15 773.545,1384.48 785.5,1382.5 Z"/></g>
<g><path style="opacity:1" fill="#7d7e7b" d="M 968.5,1252.5 C 968.5,1295.83 968.5,1339.17 968.5,1382.5C 980.12,1384.48 992.12,1385.15 1004.5,1384.5C 1004.83,1384.5 1005.17,1384.5 1005.5,1384.5C 993.011,1385.5 980.344,1385.83 967.5,1385.5C 967.168,1341 967.501,1296.66 968.5,1252.5 Z"/></g>
<g><path style="opacity:1" fill="#767673" d="M 1577.5,1383.5 C 1578.04,1383.56 1578.38,1383.89 1578.5,1384.5C 1562,1385.83 1545.67,1385.83 1529.5,1384.5C 1545.68,1384.83 1561.68,1384.5 1577.5,1383.5 Z"/></g>
<g><path style="opacity:1" fill="#141413" d="M 1054.5,1456.5 C 1071.83,1455.46 1088.83,1457.29 1105.5,1462C 1141.54,1478.39 1154.37,1505.89 1144,1544.5C 1134.77,1567.38 1117.94,1581.21 1093.5,1586C 1062.76,1593.21 1034.76,1587.55 1009.5,1569C 992.459,1550.2 986.626,1528.37 992,1503.5C 999.141,1483.03 1012.97,1469.19 1033.5,1462C 1040.51,1459.75 1047.51,1457.92 1054.5,1456.5 Z"/></g>
<g><path style="opacity:1" fill="#b2b3b0" d="M 1196.5,1459.5 C 1189.98,1459.18 1183.64,1459.51 1177.5,1460.5C 1176.96,1460.44 1176.62,1460.11 1176.5,1459.5C 1183.32,1458.18 1189.99,1458.18 1196.5,1459.5 Z"/></g>
<g><path style="opacity:1" fill="#b7b7b5" d="M 1375.5,1459.5 C 1381.64,1458.51 1387.98,1458.18 1394.5,1458.5C 1394.74,1459.79 1394.4,1460.79 1393.5,1461.5C 1387.93,1459.55 1381.93,1458.88 1375.5,1459.5 Z"/></g>
<g><path style="opacity:1" fill="#151514" d="M 699.5,1515.5 C 728.329,1516.5 757.329,1516.83 786.5,1516.5C 786.5,1521.17 786.5,1525.83 786.5,1530.5C 757.329,1530.17 728.329,1530.5 699.5,1531.5C 698.503,1548.99 698.17,1566.66 698.5,1584.5C 692.5,1584.5 686.5,1584.5 680.5,1584.5C 679.501,1543 679.168,1501.34 679.5,1459.5C 720.167,1459.5 760.833,1459.5 801.5,1459.5C 801.5,1464.83 801.5,1470.17 801.5,1475.5C 767.5,1475.5 733.5,1475.5 699.5,1475.5C 699.5,1488.83 699.5,1502.17 699.5,1515.5 Z"/></g>
<g><path style="opacity:1" fill="#121111" d="M 846.5,1459.5 C 852.5,1459.5 858.5,1459.5 864.5,1459.5C 864.667,1496.5 864.5,1533.5 864,1570.5C 863.667,1566.5 863.333,1562.5 863,1558.5C 859.841,1557.26 860.007,1556.09 863.5,1555C 860.833,1554.33 860.833,1553.67 863.5,1553C 859.341,1551.53 858.674,1549.2 861.5,1546C 860.351,1544.27 860.351,1542.6 861.5,1541C 860.833,1540 860.167,1539 859.5,1538C 860.833,1534.67 860.833,1531.33 859.5,1528C 861.799,1525.47 861.799,1522.8 859.5,1520C 860.451,1515.99 860.451,1512.16 859.5,1508.5C 859.977,1507.52 860.643,1506.69 861.5,1506C 858.79,1504.25 855.79,1503.25 852.5,1503C 853.5,1502.17 854.5,1501.33 855.5,1500.5C 854.167,1497.17 852.833,1493.83 851.5,1490.5C 852.833,1489.83 854.167,1489.17 855.5,1488.5C 854.167,1487.5 852.833,1486.5 851.5,1485.5C 852.891,1485.89 853.891,1485.06 854.5,1483C 853.551,1482.38 852.718,1482.55 852,1483.5C 851.667,1482.83 851.333,1482.17 851,1481.5C 850.112,1484.08 849.612,1486.74 849.5,1489.5C 848.702,1487.92 848.202,1486.26 848,1484.5C 847.5,1517.5 847.333,1550.5 847.5,1583.5C 884.502,1583.67 921.502,1583.5 958.5,1583C 959.46,1579.27 959.793,1575.44 959.5,1571.5C 927.996,1571.83 896.662,1571.5 865.5,1570.5C 897.167,1570.5 928.833,1570.5 960.5,1570.5C 960.5,1575.17 960.5,1579.83 960.5,1584.5C 922.5,1584.5 884.5,1584.5 846.5,1584.5C 846.5,1542.83 846.5,1501.17 846.5,1459.5 Z"/></g>
<g><path style="opacity:1" fill="#131312" d="M 1196.5,1459.5 C 1210.03,1494.08 1223.36,1528.75 1236.5,1563.5C 1249.9,1528.97 1262.9,1494.3 1275.5,1459.5C 1282.53,1459.17 1289.53,1459.5 1296.5,1460.5C 1309.46,1495.05 1322.79,1529.38 1336.5,1563.5C 1349.2,1528.68 1362.2,1494.01 1375.5,1459.5C 1381.93,1458.88 1387.93,1459.55 1393.5,1461.5C 1377.98,1502.71 1362.65,1544.04 1347.5,1585.5C 1340.17,1585.5 1332.83,1585.5 1325.5,1585.5C 1313.23,1550.86 1300.06,1516.53 1286,1482.5C 1272.03,1516.08 1259.03,1550.08 1247,1584.5C 1239.92,1585.48 1232.75,1585.81 1225.5,1585.5C 1209.23,1543.95 1193.23,1502.28 1177.5,1460.5C 1183.64,1459.51 1189.98,1459.18 1196.5,1459.5 Z"/></g>
<g><path style="opacity:1" fill="#f8f8f8" d="M 1056.5,1472.5 C 1071.6,1471.24 1086.27,1473.07 1100.5,1478C 1123.72,1490.28 1132.55,1509.45 1127,1535.5C 1120.19,1556.63 1105.69,1568.8 1083.5,1572C 1062.82,1575.39 1043.82,1571.39 1026.5,1560C 1012.05,1546.58 1006.55,1530.08 1010,1510.5C 1014.54,1493.63 1025.04,1482.13 1041.5,1476C 1046.6,1474.68 1051.6,1473.51 1056.5,1472.5 Z"/></g>
<g><path style="opacity:1" fill="#1a1a18" d="M 864.5,1459.5 C 865.498,1496 865.832,1532.66 865.5,1569.5C 865.5,1569.83 865.5,1570.17 865.5,1570.5C 896.662,1571.5 927.996,1571.83 959.5,1571.5C 959.793,1575.44 959.46,1579.27 958.5,1583C 921.502,1583.5 884.502,1583.67 847.5,1583.5C 847.333,1550.5 847.5,1517.5 848,1484.5C 848.202,1486.26 848.702,1487.92 849.5,1489.5C 849.612,1486.74 850.112,1484.08 851,1481.5C 851.333,1482.17 851.667,1482.83 852,1483.5C 852.718,1482.55 853.551,1482.38 854.5,1483C 853.891,1485.06 852.891,1485.89 851.5,1485.5C 852.833,1486.5 854.167,1487.5 855.5,1488.5C 854.167,1489.17 852.833,1489.83 851.5,1490.5C 852.833,1493.83 854.167,1497.17 855.5,1500.5C 854.5,1501.33 853.5,1502.17 852.5,1503C 855.79,1503.25 858.79,1504.25 861.5,1506C 860.643,1506.69 859.977,1507.52 859.5,1508.5C 860.451,1512.16 860.451,1515.99 859.5,1520C 861.799,1522.8 861.799,1525.47 859.5,1528C 860.833,1531.33 860.833,1534.67 859.5,1538C 860.167,1539 860.833,1540 861.5,1541C 860.351,1542.6 860.351,1544.27 861.5,1546C 858.674,1549.2 859.341,1551.53 863.5,1553C 860.833,1553.67 860.833,1554.33 863.5,1555C 860.007,1556.09 859.841,1557.26 863,1558.5C 863.333,1562.5 863.667,1566.5 864,1570.5C 864.5,1533.5 864.667,1496.5 864.5,1459.5 Z"/></g>
<g><path style="opacity:1" fill="#636361" d="M 699.5,1515.5 C 728.833,1515.5 758.167,1515.5 787.5,1515.5C 787.5,1520.83 787.5,1526.17 787.5,1531.5C 758.167,1531.5 728.833,1531.5 699.5,1531.5C 728.329,1530.5 757.329,1530.17 786.5,1530.5C 786.5,1525.83 786.5,1521.17 786.5,1516.5C 757.329,1516.83 728.329,1516.5 699.5,1515.5 Z"/></g>
<g><path style="opacity:1" fill="#181812" d="M 720.5,1521.5 C 722.379,1521.39 722.712,1521.89 721.5,1523C 722.646,1523.64 723.646,1524.48 724.5,1525.5C 726.149,1524.35 727.649,1523.02 729,1521.5C 731.615,1524.07 734.282,1524.07 737,1521.5C 737.519,1522.52 738.353,1523.18 739.5,1523.5C 744.267,1521.65 748.767,1520.98 753,1521.5C 753.219,1522.94 753.719,1524.27 754.5,1525.5C 756.655,1524.09 758.821,1522.76 761,1521.5C 761.192,1523.58 761.692,1525.58 762.5,1527.5C 762.109,1526.28 762.776,1525.45 764.5,1525C 763.398,1522.61 764.064,1522.11 766.5,1523.5C 767.833,1520.83 769.167,1520.83 770.5,1523.5C 772.644,1522.05 774.477,1522.38 776,1524.5C 776.333,1523.83 776.667,1523.17 777,1522.5C 778.848,1525.48 780.848,1525.81 783,1523.5C 784.922,1526.01 784.256,1527.67 781,1528.5C 770.177,1528.39 759.344,1528.39 748.5,1528.5C 746.036,1528.41 743.87,1527.74 742,1526.5C 736.243,1527.81 730.243,1528.48 724,1528.5C 718.167,1528.33 712.333,1528.17 706.5,1528C 707.833,1527.33 707.833,1526.67 706.5,1526C 707.833,1525.33 709.167,1525.33 710.5,1526C 707.937,1526.76 707.937,1527.26 710.5,1527.5C 712.569,1527.18 712.902,1526.34 711.5,1525C 714.108,1523.15 716.441,1523.31 718.5,1525.5C 719.308,1525.19 719.975,1524.69 720.5,1524C 719.402,1523.23 719.402,1522.4 720.5,1521.5 Z"/></g>
<g><path style="opacity:1" fill="#6a6a68" d="M 699.5,1531.5 C 699.5,1549.5 699.5,1567.5 699.5,1585.5C 692.978,1585.82 686.645,1585.49 680.5,1584.5C 686.5,1584.5 692.5,1584.5 698.5,1584.5C 698.17,1566.66 698.503,1548.99 699.5,1531.5 Z"/></g>
<g><path style="opacity:1" fill="#555554" d="M 846.5,1459.5 C 846.5,1501.17 846.5,1542.83 846.5,1584.5C 884.5,1584.5 922.5,1584.5 960.5,1584.5C 960.5,1579.83 960.5,1575.17 960.5,1570.5C 928.833,1570.5 897.167,1570.5 865.5,1570.5C 865.5,1570.17 865.5,1569.83 865.5,1569.5C 897.5,1569.5 929.5,1569.5 961.5,1569.5C 961.5,1574.83 961.5,1580.17 961.5,1585.5C 922.833,1585.5 884.167,1585.5 845.5,1585.5C 845.168,1543.33 845.501,1501.33 846.5,1459.5 Z"/></g>
</svg>
